<svg width="351" height="115" viewBox="0 0 351 115" fill="none" xmlns="http://www.w3.org/2000/svg">
<path d="M27.9395 52.5697H38.2718C39.971 44.7776 41.1458 40.8268 43.6923 34.7C43.6923 34.7 46.382 24.2833 53.3473 24.2833C60.3125 24.2833 62.8328 34.6995 62.8328 34.6995L70.1406 68.292C70.1406 68.292 74.896 41.2865 79.0635 26.5339C83.231 11.7814 92.2809 13.7593 95.8042 24.2838C98.5225 35.591 100.381 50.6109 100.381 50.6109L92.1049 52.5697L87.2144 28.6657C87.2144 28.6657 81.3334 52.1749 78.0171 74.7987C75.4188 97.166 64.2711 92.1294 61.4079 69.4906C58.5448 46.8518 53.3473 34.6995 53.3473 34.6995C53.3473 34.6995 45.1007 56.6167 45.5551 61.3777C39.3319 61.3777 28.0895 61.1736 28.0895 61.1736C28.8892 59.1327 29.2054 56.9442 27.9395 52.5697Z" fill="#0075CE"/>
<circle cx="19.5466" cy="56.9387" r="5.84521" fill="#0075CE"/>
<path d="M161.166 69.4591C161.166 69.4591 155.161 69.4591 153.974 70.1382C153.511 70.9716 151.772 71.1815 149.125 76.495C143.286 88.2151 143.476 101.798 136.827 100.412C129.433 101.338 128.195 77.5452 128.195 77.5452L123.753 51.7085C123.753 51.7085 116.77 69.5089 112.603 84.2615C108.435 99.014 100.88 98.2441 97.3564 87.7196C94.638 76.4124 92.641 57.2439 92.641 57.2439L101.364 56.2835L105.215 80.4892C105.215 80.4892 107.028 71.0391 112.603 55.4397C122.113 28.8262 133.596 44.1719 133.596 55.4397C136.459 78.0785 137.951 81.8266 137.951 81.8266C137.951 81.8266 144.303 65.4102 149.125 63.4474C155.429 60.8427 160.895 60.5554 160.895 60.5554C160.095 62.5964 159.9 65.0846 161.166 69.4591Z" fill="#37BCE1"/>
<circle cx="169.978" cy="64.7559" r="5.84521" transform="rotate(-180 169.978 64.7559)" fill="#36BCDF"/>
<path d="M188.407 56.9106H185.071L187.826 35.2124C187.926 34.4266 188.225 33.8123 188.723 33.3696C189.221 32.9269 189.808 32.7056 190.483 32.7056C191.224 32.7056 191.822 32.8993 192.276 33.2866C192.74 33.674 193.128 34.41 193.438 35.4946L198.269 51.4985H198.335L203.166 35.4946C203.476 34.41 203.858 33.674 204.312 33.2866C204.777 32.8993 205.38 32.7056 206.121 32.7056C206.774 32.7056 207.35 32.9269 207.848 33.3696C208.357 33.8123 208.661 34.4266 208.761 35.2124L211.517 56.9106H208.197L205.906 37.603H205.839L200.742 54.188C200.41 55.3058 200.073 56.0418 199.73 56.396C199.398 56.7391 198.933 56.9106 198.335 56.9106H198.269C197.66 56.9106 197.19 56.7391 196.858 56.396C196.537 56.0418 196.199 55.3058 195.845 54.188L190.748 37.603H190.682L188.407 56.9106ZM228.915 45.4224L217.892 51.5317L216.663 49.1577L224.732 44.6753C224.156 44.0998 223.608 43.6958 223.088 43.4634C222.579 43.231 221.887 43.1147 221.013 43.1147C219.463 43.1147 218.185 43.6405 217.178 44.6919C216.182 45.7323 215.684 47.0825 215.684 48.7427C215.684 50.3918 216.182 51.7476 217.178 52.8101C218.185 53.8615 219.463 54.3872 221.013 54.3872C222.673 54.3872 223.918 53.9445 224.748 53.0591C225.589 52.1737 226.17 50.9175 226.491 49.2905L229.513 49.6724C229.391 51.1112 228.954 52.4061 228.201 53.5571C227.46 54.6971 226.458 55.5991 225.197 56.2632C223.935 56.9162 222.54 57.2427 221.013 57.2427C219.895 57.2427 218.822 57.0379 217.792 56.6284C216.763 56.2078 215.85 55.6157 215.053 54.8521C214.267 54.0884 213.653 53.1919 213.21 52.1626C212.767 51.1222 212.546 49.9823 212.546 48.7427C212.546 47.5031 212.762 46.3687 213.194 45.3394C213.636 44.3101 214.262 43.408 215.07 42.6333C215.878 41.8475 216.785 41.2554 217.792 40.8569C218.81 40.4474 219.884 40.2427 221.013 40.2427C222.872 40.2427 224.455 40.6965 225.761 41.604C227.078 42.5005 228.129 43.7733 228.915 45.4224ZM245.019 33.104H248.007V48.2778C248.007 49.5838 247.808 50.7902 247.409 51.897C247.011 52.9927 246.435 53.95 245.683 54.769C244.941 55.577 244.061 56.1912 243.043 56.6118C242.036 57.0324 240.946 57.2427 239.773 57.2427C238.057 57.2427 236.558 56.8442 235.274 56.0474C234.001 55.2505 233.027 54.1714 232.352 52.8101C231.677 51.4377 231.339 49.9491 231.339 48.3442C231.339 47.2375 231.549 46.186 231.97 45.1899C232.391 44.1828 232.966 43.314 233.697 42.5835C234.438 41.842 235.274 41.2664 236.203 40.8569C237.144 40.4474 238.14 40.2427 239.192 40.2427C240.918 40.2427 242.462 40.63 243.823 41.4048V44.5425C243.447 44.2879 243.021 44.05 242.545 43.8286C242.08 43.6073 241.604 43.4357 241.117 43.314C240.63 43.1812 240.16 43.1147 239.706 43.1147C238.898 43.1147 238.168 43.2476 237.515 43.5132C236.862 43.7788 236.292 44.1606 235.805 44.6587C235.318 45.1567 234.947 45.7489 234.693 46.4351C234.449 47.1213 234.327 47.8794 234.327 48.7095C234.327 49.8052 234.554 50.7847 235.008 51.6479C235.473 52.5112 236.126 53.1864 236.967 53.6733C237.808 54.1493 238.743 54.3872 239.773 54.3872C240.758 54.3872 241.643 54.1437 242.429 53.6567C243.226 53.1587 243.857 52.4061 244.322 51.3989C244.786 50.3807 245.019 49.1577 245.019 47.73V33.104ZM255.611 56.9106H252.622V40.5913H255.611V56.9106ZM252.622 36.9224C252.622 36.5239 252.755 36.1753 253.021 35.8765C253.297 35.5776 253.663 35.4282 254.116 35.4282C254.57 35.4282 254.93 35.5776 255.196 35.8765C255.472 36.1642 255.611 36.5129 255.611 36.9224C255.611 37.3208 255.472 37.6694 255.196 37.9683C254.93 38.2671 254.57 38.4165 254.116 38.4165C253.663 38.4165 253.297 38.2671 253.021 37.9683C252.755 37.6694 252.622 37.3208 252.622 36.9224Z" fill="#0075D4"/>
<path d="M286.557 49.022C286.557 47.673 286.792 46.4385 287.261 45.3184C287.743 44.1982 288.424 43.2166 289.303 42.3735C290.182 41.5184 291.17 40.874 292.266 40.4404C293.374 39.9948 294.542 39.772 295.771 39.772C296.999 39.772 298.167 39.9948 299.275 40.4404C300.383 40.874 301.365 41.5063 302.22 42.3374C303.087 43.1685 303.762 44.1621 304.244 45.3184C304.737 46.4626 304.984 47.6971 304.984 49.022C304.984 50.3468 304.737 51.5874 304.244 52.7437C303.75 53.8999 303.081 54.8815 302.238 55.6885C301.407 56.4954 300.432 57.1278 299.312 57.5854C298.191 58.0431 297.011 58.272 295.771 58.272C294.554 58.272 293.386 58.0492 292.266 57.6035C291.146 57.1458 290.152 56.5015 289.285 55.6704C288.43 54.8394 287.761 53.8638 287.279 52.7437C286.798 51.6115 286.557 50.3709 286.557 49.022ZM289.971 49.022C289.971 50.8166 290.513 52.292 291.597 53.4482C292.693 54.5924 294.084 55.1646 295.771 55.1646C297.469 55.1646 298.86 54.5924 299.944 53.4482C301.04 52.292 301.588 50.8166 301.588 49.022C301.588 47.2153 301.04 45.7459 299.944 44.6138C298.86 43.4696 297.469 42.8975 295.771 42.8975C294.084 42.8975 292.693 43.4696 291.597 44.6138C290.513 45.7459 289.971 47.2153 289.971 49.022ZM307.712 57.9106V40.1514H310.82V42.1929H310.892C311.434 41.3377 312.09 40.7235 312.861 40.3501C313.632 39.9647 314.578 39.772 315.698 39.772H316.438V42.8975H315.969C312.632 42.8975 310.964 45.1377 310.964 49.6182V57.9106H307.712ZM321.569 57.9106H318.299V32.0034H321.569V46.7456H322.924C324.225 46.7456 325.14 46.3 325.67 45.4087L328.742 40.1514H332.445L330.115 44.144C329.681 44.9269 329.223 45.6375 328.742 46.2759C328.26 46.9022 327.79 47.2756 327.333 47.396V47.4683C328.681 47.7212 329.693 48.2752 330.368 49.1304C331.054 49.9735 331.397 51.1598 331.397 52.6895V57.9106H328.146V53.0688C328.146 51.9969 327.887 51.196 327.369 50.666C326.851 50.124 326.152 49.853 325.273 49.853H321.569V57.9106Z" fill="#37BBE5"/>
<path d="M284.335 32.7812L287.868 32.7812L284.95 55.7559C284.845 56.5879 284.529 57.2383 284.001 57.707C283.474 58.1758 282.853 58.4102 282.138 58.4102C281.353 58.4102 280.72 58.2051 280.24 57.7949C279.747 57.3848 279.337 56.6055 279.009 55.457L273.894 38.5117L273.823 38.5117L268.708 55.457C268.38 56.6055 267.976 57.3848 267.495 57.7949C267.003 58.2051 266.365 58.4102 265.579 58.4102C264.888 58.4102 264.279 58.1758 263.751 57.707C263.212 57.2383 262.89 56.5879 262.784 55.7559L259.866 32.7812L263.382 32.7812L265.808 53.2246L265.878 53.2246L271.275 35.6641C271.626 34.4805 271.984 33.7012 272.347 33.3262C272.698 32.9629 273.191 32.7812 273.823 32.7812L273.894 32.7812C274.538 32.7812 275.036 32.9629 275.388 33.3262C275.728 33.7012 276.085 34.4805 276.46 35.6641L281.857 53.2246L281.927 53.2246L284.335 32.7812Z" fill="#37BBE5"/>
<path d="M186.02 81.7559L187.924 69.6919H194.404L194.196 71.0679H189.22L188.676 74.4439H193.508L193.3 75.8199H188.468L187.748 80.3799H192.724L192.5 81.7559H186.02ZM199.388 75.3559L198.124 75.9799C198.012 75.6119 197.692 75.3239 197.276 75.3239C196.876 75.3239 196.428 75.6439 196.364 76.0599C196.268 76.7159 197.084 77.0039 197.9 77.4039C198.716 77.8039 199.484 78.3479 199.292 79.5319C199.068 80.9559 197.708 82.0119 196.316 82.0119C195.228 82.0119 194.236 81.3879 193.996 80.3319L195.324 79.7719C195.532 80.3319 195.836 80.7319 196.524 80.7319C197.132 80.7319 197.724 80.3159 197.836 79.6759C197.884 79.2759 197.724 79.0839 197.436 78.8599L196.14 78.1079C195.372 77.6599 194.844 77.2439 195.004 76.2199C195.196 75.0039 196.332 74.0439 197.548 74.0439C198.46 74.0439 199.116 74.5399 199.388 75.3559ZM204.121 80.7319C205.689 80.7319 206.745 79.4839 206.985 78.0119C207.209 76.5559 206.537 75.3239 204.985 75.3239C203.497 75.3239 202.409 76.6199 202.185 78.0119C201.961 79.4199 202.601 80.7319 204.121 80.7319ZM202.857 74.2679L202.665 75.5159H202.697C203.417 74.6199 204.409 74.0439 205.529 74.0439C207.689 74.0439 208.761 75.9159 208.425 77.9639C208.089 80.1079 206.505 82.0119 204.201 82.0119C203.145 82.0119 202.329 81.4359 201.897 80.5879H201.865L201.001 86.0439H199.561L201.417 74.2679H202.857ZM216.371 78.2519H210.659C210.467 79.5319 211.139 80.7319 212.515 80.7319C213.619 80.7319 214.307 80.1719 214.979 79.2759L216.099 79.9639C215.187 81.2599 213.747 82.0119 212.291 82.0119C210.003 82.0119 208.899 80.2839 209.235 78.0759C209.603 75.7719 211.107 74.0439 213.523 74.0439C215.907 74.0439 216.755 75.8039 216.403 78.0279L216.371 78.2519ZM210.899 77.1639H215.091C215.091 76.0439 214.483 75.2919 213.331 75.2919C212.211 75.2919 211.251 76.0919 210.899 77.1639ZM223.688 74.5399L223.4 76.3959C222.92 75.7399 222.28 75.3879 221.416 75.3879C220.008 75.3879 218.728 76.6359 218.504 78.0119C218.264 79.5479 219.16 80.6679 220.68 80.6679C221.512 80.6679 222.248 80.2839 222.888 79.6759L222.584 81.5159C221.88 81.8679 221.192 82.0119 220.44 82.0119C218.232 82.0119 216.696 80.3159 217.048 78.0759C217.416 75.7559 219.48 74.0439 221.784 74.0439C222.456 74.0439 223.176 74.2039 223.688 74.5399ZM227.054 74.2679L225.87 81.7559H224.43L225.614 74.2679H227.054ZM227.038 69.8359C227.582 69.8359 227.95 70.2839 227.87 70.8439C227.774 71.3879 227.262 71.8199 226.718 71.8199C226.174 71.8199 225.79 71.3879 225.886 70.8439C225.966 70.2839 226.494 69.8359 227.038 69.8359ZM231.565 80.7319C233.133 80.7319 234.189 79.4839 234.429 78.0119C234.653 76.5559 233.981 75.3239 232.429 75.3239C230.941 75.3239 229.853 76.6199 229.629 78.0119C229.405 79.4199 230.045 80.7319 231.565 80.7319ZM236.381 74.2679L235.197 81.7559H233.757L233.949 80.5879H233.917C233.197 81.4359 232.205 82.0119 231.133 82.0119C228.845 82.0119 227.853 80.1079 228.189 77.9639C228.525 75.9159 230.173 74.0439 232.349 74.0439C233.453 74.0439 234.253 74.6199 234.717 75.5159H234.749L234.941 74.2679H236.381ZM240.76 67.8679L238.568 81.7559H237.128L239.32 67.8679H240.76ZM243.554 74.2679L242.37 81.7559H240.93L242.114 74.2679H243.554ZM243.538 69.8359C244.082 69.8359 244.45 70.2839 244.37 70.8439C244.274 71.3879 243.762 71.8199 243.218 71.8199C242.674 71.8199 242.29 71.3879 242.386 70.8439C242.466 70.2839 242.994 69.8359 243.538 69.8359ZM249.857 75.3559L248.593 75.9799C248.481 75.6119 248.161 75.3239 247.745 75.3239C247.345 75.3239 246.897 75.6439 246.833 76.0599C246.737 76.7159 247.553 77.0039 248.369 77.4039C249.185 77.8039 249.953 78.3479 249.761 79.5319C249.537 80.9559 248.177 82.0119 246.785 82.0119C245.697 82.0119 244.705 81.3879 244.465 80.3319L245.793 79.7719C246.001 80.3319 246.305 80.7319 246.993 80.7319C247.601 80.7319 248.193 80.3159 248.305 79.6759C248.353 79.2759 248.193 79.0839 247.905 78.8599L246.609 78.1079C245.841 77.6599 245.313 77.2439 245.473 76.2199C245.665 75.0039 246.801 74.0439 248.017 74.0439C248.929 74.0439 249.585 74.5399 249.857 75.3559ZM253.438 75.6119L252.462 81.7559H251.022L251.998 75.6119H251.214L251.422 74.2679H252.206L252.654 71.4039H254.094L253.646 74.2679H255.054L254.846 75.6119H253.438ZM258.049 80.7319C259.617 80.7319 260.673 79.4839 260.913 78.0119C261.137 76.5559 260.465 75.3239 258.913 75.3239C257.425 75.3239 256.337 76.6199 256.113 78.0119C255.889 79.4199 256.529 80.7319 258.049 80.7319ZM262.865 74.2679L261.681 81.7559H260.241L260.433 80.5879H260.401C259.681 81.4359 258.689 82.0119 257.617 82.0119C255.329 82.0119 254.337 80.1079 254.673 77.9639C255.009 75.9159 256.657 74.0439 258.833 74.0439C259.937 74.0439 260.737 74.6199 261.201 75.5159H261.233L261.425 74.2679H262.865ZM268.732 75.3559L267.468 75.9799C267.356 75.6119 267.036 75.3239 266.62 75.3239C266.22 75.3239 265.772 75.6439 265.708 76.0599C265.612 76.7159 266.428 77.0039 267.244 77.4039C268.06 77.8039 268.828 78.3479 268.636 79.5319C268.412 80.9559 267.052 82.0119 265.66 82.0119C264.572 82.0119 263.58 81.3879 263.34 80.3319L264.668 79.7719C264.876 80.3319 265.18 80.7319 265.868 80.7319C266.476 80.7319 267.068 80.3159 267.18 79.6759C267.228 79.2759 267.068 79.0839 266.78 78.8599L265.484 78.1079C264.716 77.6599 264.188 77.2439 264.348 76.2199C264.54 75.0039 265.676 74.0439 266.892 74.0439C267.804 74.0439 268.46 74.5399 268.732 75.3559ZM281.45 78.2519H275.738C275.546 79.5319 276.218 80.7319 277.594 80.7319C278.698 80.7319 279.386 80.1719 280.058 79.2759L281.178 79.9639C280.266 81.2599 278.826 82.0119 277.37 82.0119C275.082 82.0119 273.978 80.2839 274.314 78.0759C274.682 75.7719 276.186 74.0439 278.602 74.0439C280.986 74.0439 281.834 75.8039 281.482 78.0279L281.45 78.2519ZM275.978 77.1639H280.17C280.17 76.0439 279.562 75.2919 278.41 75.2919C277.29 75.2919 276.33 76.0919 275.978 77.1639ZM284.75 74.2679L284.59 75.2759H284.622C285.198 74.4759 286.158 74.0439 287.07 74.0439C289.182 74.0439 289.502 75.4679 289.214 77.2919L288.51 81.7559H287.07L287.742 77.4679C287.95 76.1879 287.918 75.3239 286.446 75.3239C284.59 75.3239 284.318 76.9559 284.11 78.3159L283.566 81.7559H282.126L283.31 74.2679H284.75ZM303.51 71.2599L302.198 71.9799C301.862 71.2279 301.35 70.8439 300.438 70.8439C299.478 70.8439 298.31 71.4999 298.15 72.5559C298.006 73.4999 298.854 73.9959 299.558 74.2839L300.358 74.6199C301.974 75.2919 303.11 76.2359 302.79 78.2519C302.438 80.4439 300.486 82.0119 298.326 82.0119C296.374 82.0119 295.094 80.5719 295.142 78.6359L296.71 78.3159C296.486 79.6439 297.382 80.6039 298.678 80.6039C299.974 80.6039 301.078 79.5159 301.286 78.2519C301.478 76.9559 300.534 76.3959 299.558 75.9639L298.79 75.6119C297.51 75.0199 296.374 74.2359 296.646 72.5559C296.95 70.6039 298.87 69.4359 300.694 69.4359C302.038 69.4359 303.03 70.0919 303.51 71.2599ZM307.112 80.7319C308.68 80.7319 309.736 79.4839 309.976 78.0119C310.2 76.5559 309.528 75.3239 307.976 75.3239C306.488 75.3239 305.4 76.6199 305.176 78.0119C304.952 79.4199 305.592 80.7319 307.112 80.7319ZM311.928 74.2679L310.744 81.7559H309.304L309.496 80.5879H309.464C308.744 81.4359 307.752 82.0119 306.68 82.0119C304.392 82.0119 303.4 80.1079 303.736 77.9639C304.072 75.9159 305.72 74.0439 307.896 74.0439C309 74.0439 309.8 74.6199 310.264 75.5159H310.296L310.488 74.2679H311.928ZM316.306 67.8679L314.114 81.7559H312.674L314.866 67.8679H316.306ZM317.277 74.2679H318.717L318.061 78.4119C317.869 79.6119 318.013 80.6679 319.437 80.6679C320.861 80.6679 321.325 79.6119 321.517 78.4119L322.173 74.2679H323.613L322.925 78.5719C322.605 80.6199 321.421 82.0119 319.213 82.0119C317.005 82.0119 316.269 80.6199 316.589 78.5719L317.277 74.2679ZM327.737 80.7319C329.305 80.7319 330.361 79.4839 330.601 78.0119C330.825 76.5559 330.153 75.3239 328.601 75.3239C327.113 75.3239 326.025 76.6199 325.801 78.0119C325.577 79.4199 326.217 80.7319 327.737 80.7319ZM329.929 81.7559L330.121 80.5879H330.089C329.369 81.4359 328.361 82.0119 327.305 82.0119C325.001 82.0119 324.025 80.1079 324.361 77.9639C324.697 75.9159 326.345 74.0439 328.505 74.0439C329.625 74.0439 330.425 74.6199 330.889 75.5159H330.921L332.121 67.8679H333.561L331.369 81.7559H329.929Z" fill="#0374C6"/>
<line x1="185.071" y1="64.7559" x2="333.8" y2="64.7559" stroke="#3BB9DB" stroke-width="2"/>
</svg>
